<mxfile host="app.diagrams.net" modified="2024-04-29T13:43:16.687Z" agent="Mozilla/5.0 (Windows NT 10.0; Win64; x64) AppleWebKit/537.36 (KHTML, like Gecko) Chrome/124.0.0.0 Safari/537.36" etag="IA8DfIIyoEsXIoVfnWf1" version="24.2.7" type="github">
  <diagram name="Page-1" id="MvXLuO3I8rCG2dPyblo1">
    <mxGraphModel dx="1154" dy="639" grid="1" gridSize="10" guides="1" tooltips="1" connect="1" arrows="1" fold="1" page="1" pageScale="1" pageWidth="1100" pageHeight="850" math="0" shadow="0">
      <root>
        <mxCell id="0" />
        <mxCell id="1" parent="0" />
        <mxCell id="mX8UKGj_rS5RMcYGwLXg-1" value="VersatilyDB" style="shape=cylinder3;whiteSpace=wrap;html=1;boundedLbl=1;backgroundOutline=1;size=15;" vertex="1" parent="1">
          <mxGeometry x="30" y="50" width="130" height="130" as="geometry" />
        </mxCell>
        <mxCell id="mX8UKGj_rS5RMcYGwLXg-2" value="" style="endArrow=none;html=1;rounded=0;exitX=1.001;exitY=0.539;exitDx=0;exitDy=0;exitPerimeter=0;" edge="1" parent="1" source="mX8UKGj_rS5RMcYGwLXg-1">
          <mxGeometry width="50" height="50" relative="1" as="geometry">
            <mxPoint x="200" y="120" as="sourcePoint" />
            <mxPoint x="320" y="120" as="targetPoint" />
          </mxGeometry>
        </mxCell>
        <mxCell id="mX8UKGj_rS5RMcYGwLXg-3" value="Accounts" style="swimlane;whiteSpace=wrap;html=1;" vertex="1" parent="1">
          <mxGeometry x="320" y="40" width="150" height="240" as="geometry">
            <mxRectangle x="335" y="50" width="140" height="30" as="alternateBounds" />
          </mxGeometry>
        </mxCell>
        <mxCell id="mX8UKGj_rS5RMcYGwLXg-4" value="account_firstName" style="text;html=1;align=center;verticalAlign=middle;resizable=0;points=[];autosize=1;strokeColor=default;fillColor=none;rounded=1;" vertex="1" parent="mX8UKGj_rS5RMcYGwLXg-3">
          <mxGeometry x="10" y="70" width="120" height="30" as="geometry" />
        </mxCell>
        <mxCell id="mX8UKGj_rS5RMcYGwLXg-5" value="account_lastName" style="text;html=1;align=center;verticalAlign=middle;resizable=0;points=[];autosize=1;strokeColor=default;fillColor=none;rounded=1;glass=0;" vertex="1" parent="mX8UKGj_rS5RMcYGwLXg-3">
          <mxGeometry x="10" y="110" width="120" height="30" as="geometry" />
        </mxCell>
        <mxCell id="mX8UKGj_rS5RMcYGwLXg-6" value="account_pass" style="text;html=1;align=center;verticalAlign=middle;resizable=0;points=[];autosize=1;strokeColor=default;fillColor=none;rounded=1;" vertex="1" parent="mX8UKGj_rS5RMcYGwLXg-3">
          <mxGeometry x="10" y="150" width="100" height="30" as="geometry" />
        </mxCell>
        <mxCell id="mX8UKGj_rS5RMcYGwLXg-7" value="account_role" style="text;html=1;align=center;verticalAlign=middle;resizable=0;points=[];autosize=1;strokeColor=default;fillColor=none;rounded=1;" vertex="1" parent="mX8UKGj_rS5RMcYGwLXg-3">
          <mxGeometry x="10" y="190" width="90" height="30" as="geometry" />
        </mxCell>
        <mxCell id="mX8UKGj_rS5RMcYGwLXg-18" value="account_userName" style="text;html=1;align=center;verticalAlign=middle;resizable=0;points=[];autosize=1;strokeColor=default;fillColor=none;rounded=1;" vertex="1" parent="mX8UKGj_rS5RMcYGwLXg-3">
          <mxGeometry x="10" y="30" width="130" height="30" as="geometry" />
        </mxCell>
        <mxCell id="mX8UKGj_rS5RMcYGwLXg-11" style="edgeStyle=orthogonalEdgeStyle;rounded=0;orthogonalLoop=1;jettySize=auto;html=1;endArrow=none;endFill=0;entryX=0;entryY=0.5;entryDx=0;entryDy=0;" edge="1" parent="1" source="mX8UKGj_rS5RMcYGwLXg-10" target="mX8UKGj_rS5RMcYGwLXg-12">
          <mxGeometry relative="1" as="geometry">
            <mxPoint x="310" y="395" as="targetPoint" />
          </mxGeometry>
        </mxCell>
        <mxCell id="mX8UKGj_rS5RMcYGwLXg-10" value="User" style="rounded=1;whiteSpace=wrap;html=1;" vertex="1" parent="1">
          <mxGeometry x="55" y="365" width="120" height="60" as="geometry" />
        </mxCell>
        <mxCell id="mX8UKGj_rS5RMcYGwLXg-12" value="Register" style="rhombus;whiteSpace=wrap;html=1;" vertex="1" parent="1">
          <mxGeometry x="360" y="355" width="80" height="80" as="geometry" />
        </mxCell>
        <mxCell id="mX8UKGj_rS5RMcYGwLXg-15" value="" style="endArrow=none;html=1;rounded=0;exitX=0.5;exitY=0;exitDx=0;exitDy=0;" edge="1" parent="1" source="mX8UKGj_rS5RMcYGwLXg-12">
          <mxGeometry width="50" height="50" relative="1" as="geometry">
            <mxPoint x="360" y="340" as="sourcePoint" />
            <mxPoint x="400" y="280" as="targetPoint" />
          </mxGeometry>
        </mxCell>
        <mxCell id="mX8UKGj_rS5RMcYGwLXg-17" value="Verify Credentials&lt;br style=&quot;font-size: 8px;&quot;&gt;- account_userName&lt;div style=&quot;font-size: 8px;&quot;&gt;- account_pass&lt;/div&gt;" style="text;html=1;align=center;verticalAlign=middle;resizable=0;points=[];autosize=1;strokeColor=#82b366;fillColor=#d5e8d4;imageAlign=center;fontSize=8;glass=0;shadow=0;rounded=1;arcSize=50;" vertex="1" parent="1">
          <mxGeometry x="440" y="310" width="100" height="40" as="geometry" />
        </mxCell>
        <mxCell id="mX8UKGj_rS5RMcYGwLXg-20" value="" style="endArrow=none;html=1;rounded=0;entryX=-0.003;entryY=0.502;entryDx=0;entryDy=0;entryPerimeter=0;" edge="1" parent="1" target="mX8UKGj_rS5RMcYGwLXg-17">
          <mxGeometry width="50" height="50" relative="1" as="geometry">
            <mxPoint x="400" y="330" as="sourcePoint" />
            <mxPoint x="410" y="320" as="targetPoint" />
          </mxGeometry>
        </mxCell>
        <mxCell id="mX8UKGj_rS5RMcYGwLXg-21" value="PASSWORD IS HASHED" style="text;html=1;align=center;verticalAlign=middle;resizable=0;points=[];autosize=1;strokeColor=#b85450;fillColor=#f8cecc;rounded=1;arcSize=50;fontSize=6;" vertex="1" parent="1">
          <mxGeometry x="550" y="320" width="90" height="20" as="geometry" />
        </mxCell>
        <mxCell id="mX8UKGj_rS5RMcYGwLXg-23" value="" style="endArrow=none;html=1;rounded=0;exitX=1;exitY=0.5;exitDx=0;exitDy=0;entryX=0;entryY=0.5;entryDx=0;entryDy=0;" edge="1" parent="1" source="mX8UKGj_rS5RMcYGwLXg-12" target="mX8UKGj_rS5RMcYGwLXg-24">
          <mxGeometry width="50" height="50" relative="1" as="geometry">
            <mxPoint x="510" y="420" as="sourcePoint" />
            <mxPoint x="680" y="395" as="targetPoint" />
          </mxGeometry>
        </mxCell>
        <mxCell id="mX8UKGj_rS5RMcYGwLXg-24" value="System" style="rounded=1;whiteSpace=wrap;html=1;" vertex="1" parent="1">
          <mxGeometry x="680" y="365" width="120" height="60" as="geometry" />
        </mxCell>
        <mxCell id="mX8UKGj_rS5RMcYGwLXg-26" value="" style="endArrow=none;html=1;rounded=0;entryX=0.5;entryY=1;entryDx=0;entryDy=0;" edge="1" parent="1" target="mX8UKGj_rS5RMcYGwLXg-24">
          <mxGeometry width="50" height="50" relative="1" as="geometry">
            <mxPoint x="740" y="500" as="sourcePoint" />
            <mxPoint x="750" y="440" as="targetPoint" />
          </mxGeometry>
        </mxCell>
        <mxCell id="mX8UKGj_rS5RMcYGwLXg-27" value="Give Role" style="rhombus;whiteSpace=wrap;html=1;" vertex="1" parent="1">
          <mxGeometry x="700" y="500" width="80" height="80" as="geometry" />
        </mxCell>
        <mxCell id="mX8UKGj_rS5RMcYGwLXg-28" value="" style="endArrow=none;html=1;rounded=0;entryX=0.5;entryY=1;entryDx=0;entryDy=0;exitX=0.5;exitY=0;exitDx=0;exitDy=0;" edge="1" parent="1" source="mX8UKGj_rS5RMcYGwLXg-29" target="mX8UKGj_rS5RMcYGwLXg-27">
          <mxGeometry width="50" height="50" relative="1" as="geometry">
            <mxPoint x="740" y="660" as="sourcePoint" />
            <mxPoint x="730" y="600" as="targetPoint" />
          </mxGeometry>
        </mxCell>
        <mxCell id="mX8UKGj_rS5RMcYGwLXg-29" value="Roles" style="rounded=1;whiteSpace=wrap;html=1;" vertex="1" parent="1">
          <mxGeometry x="680" y="660" width="120" height="60" as="geometry" />
        </mxCell>
        <mxCell id="mX8UKGj_rS5RMcYGwLXg-30" value="Roles" style="swimlane;whiteSpace=wrap;html=1;" vertex="1" parent="1">
          <mxGeometry x="850" y="600" width="130" height="390" as="geometry" />
        </mxCell>
        <mxCell id="mX8UKGj_rS5RMcYGwLXg-32" value="POS Admin" style="text;html=1;align=left;verticalAlign=middle;whiteSpace=wrap;rounded=1;fillColor=none;strokeColor=default;" vertex="1" parent="mX8UKGj_rS5RMcYGwLXg-30">
          <mxGeometry x="10" y="35" width="80" height="30" as="geometry" />
        </mxCell>
        <mxCell id="mX8UKGj_rS5RMcYGwLXg-33" value="POS Staff" style="text;html=1;align=left;verticalAlign=middle;whiteSpace=wrap;rounded=1;fillColor=none;strokeColor=default;labelPosition=center;verticalLabelPosition=middle;" vertex="1" parent="mX8UKGj_rS5RMcYGwLXg-30">
          <mxGeometry x="10" y="70" width="80" height="30" as="geometry" />
        </mxCell>
        <mxCell id="mX8UKGj_rS5RMcYGwLXg-34" value="Ticketing Admin" style="text;html=1;align=left;verticalAlign=middle;whiteSpace=wrap;rounded=1;fillColor=none;strokeColor=default;labelPosition=center;verticalLabelPosition=middle;" vertex="1" parent="mX8UKGj_rS5RMcYGwLXg-30">
          <mxGeometry x="10" y="110" width="90" height="30" as="geometry" />
        </mxCell>
        <mxCell id="mX8UKGj_rS5RMcYGwLXg-35" value="Ticketing Staff" style="text;html=1;align=left;verticalAlign=middle;whiteSpace=wrap;rounded=1;fillColor=none;strokeColor=default;labelPosition=center;verticalLabelPosition=middle;" vertex="1" parent="mX8UKGj_rS5RMcYGwLXg-30">
          <mxGeometry x="10" y="150" width="90" height="30" as="geometry" />
        </mxCell>
        <mxCell id="mX8UKGj_rS5RMcYGwLXg-36" value="Tabulation User" style="text;html=1;align=left;verticalAlign=middle;whiteSpace=wrap;rounded=1;fillColor=none;strokeColor=default;labelPosition=center;verticalLabelPosition=middle;" vertex="1" parent="mX8UKGj_rS5RMcYGwLXg-30">
          <mxGeometry x="10" y="190" width="90" height="30" as="geometry" />
        </mxCell>
        <mxCell id="mX8UKGj_rS5RMcYGwLXg-37" value="Tabulation Admin" style="text;html=1;align=left;verticalAlign=middle;whiteSpace=wrap;rounded=1;fillColor=none;strokeColor=default;labelPosition=center;verticalLabelPosition=middle;" vertex="1" parent="mX8UKGj_rS5RMcYGwLXg-30">
          <mxGeometry x="10" y="230" width="100" height="30" as="geometry" />
        </mxCell>
        <mxCell id="mX8UKGj_rS5RMcYGwLXg-38" value="CMS Admin" style="text;html=1;align=left;verticalAlign=middle;whiteSpace=wrap;rounded=1;fillColor=none;strokeColor=default;labelPosition=center;verticalLabelPosition=middle;" vertex="1" parent="mX8UKGj_rS5RMcYGwLXg-30">
          <mxGeometry x="10" y="270" width="100" height="30" as="geometry" />
        </mxCell>
        <mxCell id="mX8UKGj_rS5RMcYGwLXg-39" value="Registered User" style="text;html=1;align=left;verticalAlign=middle;whiteSpace=wrap;rounded=1;fillColor=none;strokeColor=default;labelPosition=center;verticalLabelPosition=middle;" vertex="1" parent="mX8UKGj_rS5RMcYGwLXg-30">
          <mxGeometry x="10" y="310" width="100" height="30" as="geometry" />
        </mxCell>
        <mxCell id="mX8UKGj_rS5RMcYGwLXg-40" value="Guest" style="text;html=1;align=left;verticalAlign=middle;whiteSpace=wrap;rounded=1;fillColor=none;strokeColor=default;labelPosition=center;verticalLabelPosition=middle;" vertex="1" parent="mX8UKGj_rS5RMcYGwLXg-30">
          <mxGeometry x="10" y="350" width="100" height="30" as="geometry" />
        </mxCell>
        <mxCell id="mX8UKGj_rS5RMcYGwLXg-31" value="" style="endArrow=none;html=1;rounded=0;exitX=1;exitY=0.5;exitDx=0;exitDy=0;" edge="1" parent="1">
          <mxGeometry width="50" height="50" relative="1" as="geometry">
            <mxPoint x="799.9999999999999" y="689.97" as="sourcePoint" />
            <mxPoint x="850" y="690" as="targetPoint" />
          </mxGeometry>
        </mxCell>
      </root>
    </mxGraphModel>
  </diagram>
</mxfile>
